<?xml version="1.0" standalone="no"?>
<!DOCTYPE svg PUBLIC "-//W3C//DTD SVG 20010904//EN"
 "http://www.w3.org/TR/2001/REC-SVG-20010904/DTD/svg10.dtd">
<svg version="1.0" xmlns="http://www.w3.org/2000/svg"
 width="260.000000pt" height="260.000000pt" viewBox="0 0 260.000000 260.000000"
 preserveAspectRatio="xMidYMid meet">
<metadata>
Created by potrace 1.11, written by Peter Selinger 2001-2013
</metadata>
<g transform="translate(0.000000,260.000000) scale(0.100000,-0.100000)"
fill="#000000" stroke="none">
<path d="M0 1300 l0 -1300 1300 0 1300 0 0 1300 0 1300 -1300 0 -1300 0 0
-1300z m2295 500 l0 -195 -995 0 -995 0 -3 185 c-1 101 0 190 2 197 4 11 196
13 998 11 l993 -3 0 -195z m0 -500 l0 -195 -995 0 -995 0 -3 185 c-1 101 0
190 2 197 4 11 196 13 998 11 l993 -3 0 -195z m0 -500 l0 -195 -995 0 -995 0
-3 185 c-1 101 0 190 2 197 4 11 196 13 998 11 l993 -3 0 -195z"/>
</g>
</svg>
